<?xml version="1.0" encoding="UTF-8" standalone="no"?>
<!-- Created with Inkscape (http://www.inkscape.org/) -->

<svg
   width="16.693384mm"
   height="19.211229mm"
   viewBox="0 0 16.693384 19.211229"
   version="1.1"
   id="svg5"
   inkscape:version="1.1 (ce6663b3b7, 2021-05-25)"
   sodipodi:docname="canto_wv1.svg"
   xmlns:inkscape="http://www.inkscape.org/namespaces/inkscape"
   xmlns:sodipodi="http://sodipodi.sourceforge.net/DTD/sodipodi-0.dtd"
   xmlns="http://www.w3.org/2000/svg"
   xmlns:svg="http://www.w3.org/2000/svg">
  <sodipodi:namedview
     id="namedview7"
     pagecolor="#505050"
     bordercolor="#ffffff"
     borderopacity="1"
     inkscape:pageshadow="0"
     inkscape:pageopacity="0"
     inkscape:pagecheckerboard="1"
     inkscape:document-units="mm"
     showgrid="false"
     showguides="false"
     inkscape:zoom="2.56"
     inkscape:cx="74.414063"
     inkscape:cy="29.882813"
     inkscape:window-width="1916"
     inkscape:window-height="1049"
     inkscape:window-x="1080"
     inkscape:window-y="767"
     inkscape:window-maximized="1"
     inkscape:current-layer="layer1"
     fit-margin-top="0"
     fit-margin-left="0"
     fit-margin-right="0"
     fit-margin-bottom="0" />
  <defs
     id="defs2">
    <rect
       x="12.049605"
       y="343.42035"
       width="68.664925"
       height="55.216625"
       id="rect77534" />
    <rect
       x="40.244633"
       y="318.99051"
       width="514.81323"
       height="374.7417"
       id="rect1023" />
  </defs>
  <g
     inkscape:label="Layer 1"
     inkscape:groupmode="layer"
     id="layer1"
     transform="translate(-11.912968,-88.465918)">
    <path
       id="text1021"
       style="font-style:normal;font-variant:normal;font-weight:bold;font-stretch:normal;font-size:96px;line-height:1.25;font-family:'Noto Music';-inkscape-font-specification:'Noto Music Bold';white-space:pre;shape-inside:url(#rect1023);fill:#ffffff;fill-opacity:1;stroke:none"
       d="m 82.947266,334.35938 c -11.65625,0 -20.890625,3.26562 -27.703125,9.79687 -6.8125,6.5 -10.21875,15.34375 -10.21875,26.53125 0,11.15625 3.40625,20 10.21875,26.53125 6.8125,6.5 16.046875,9.75 27.703125,9.75 3.90625,0 7.65625,-0.4375 11.25,-1.3125 3.59375,-0.875 7.046874,-2.17188 10.359374,-3.89063 v -14.48437 c -3.34375,2.28125 -6.640624,3.95313 -9.890624,5.01563 -3.25,1.06249 -6.671875,1.59374 -10.265625,1.59374 -6.4375,0 -11.5,-2.0625 -15.1875,-6.1875 -3.6875,-4.12499 -5.53125,-9.79687 -5.53125,-17.01562 0,-7.25 1.84375,-12.9375 5.53125,-17.0625 3.6875,-4.125 8.75,-6.1875 15.1875,-6.1875 3.59375,0 7.015625,0.53125 10.265625,1.59375 3.25,1.0625 6.546874,2.73438 9.890624,5.01563 V 339.5625 c -3.3125,-1.71875 -6.765624,-3.01563 -10.359374,-3.89062 -3.59375,-0.875 -7.34375,-1.3125 -11.25,-1.3125 z M 58.033203,366.4043 c 0.534723,0 1.06163,0.0493 1.578125,0.14648 0.522568,0.0911 1.042099,0.23155 1.558594,0.41992 v 2.66016 c -0.443578,-0.30382 -0.890191,-0.52799 -1.339844,-0.67383 -0.443575,-0.14584 -0.906683,-0.21875 -1.386719,-0.21875 -0.911458,0 -1.622394,0.26801 -2.132812,0.80274 -0.50434,0.52864 -0.755859,1.26866 -0.755859,2.22265 0,0.95399 0.251519,1.69965 0.755859,2.23438 0.510418,0.52864 1.221354,0.79297 2.132812,0.79297 0.510418,0 0.993491,-0.0766 1.449219,-0.22852 0.461805,-0.15191 0.888453,-0.37609 1.277344,-0.67383 v 2.66992 c -0.510418,0.18838 -1.029949,0.32878 -1.558594,0.41993 -0.52257,0.0972 -1.049477,0.14453 -1.578125,0.14453 -1.841146,0 -3.28125,-0.47027 -4.320312,-1.41211 -1.039063,-0.94792 -1.558594,-2.26411 -1.558594,-3.94727 0,-1.68316 0.519531,-2.99566 1.558594,-3.9375 1.039062,-0.94792 2.479166,-1.42187 4.320312,-1.42187 z"
       transform="scale(0.26458333)" />
    <g
       aria-label="c anto"
       id="text45147"
       style="font-size:4.93889px;line-height:1.25;font-family:'Noto Music';-inkscape-font-specification:'Noto Music';stroke-width:0.264583;fill:#ffffff">
      <path
         d="m 18.690428,98.495286 q -0.270095,0 -0.407554,0.09164 -0.135048,0.09164 -0.135048,0.270095 0,0.163987 0.10852,0.258038 0.110932,0.09164 0.306269,0.09164 0.243569,0 0.409967,-0.173633 0.166398,-0.176045 0.166398,-0.438905 v -0.09888 z m 1.319128,-0.325561 v 1.540991 H 19.13898 v -0.40032 q -0.173633,0.24598 -0.390674,0.359324 -0.217041,0.110932 -0.528133,0.110932 -0.419613,0 -0.682474,-0.243569 -0.260449,-0.245979 -0.260449,-0.636653 0,-0.475079 0.325562,-0.696943 0.327973,-0.221865 1.027327,-0.221865 h 0.508841 v -0.06752 q 0,-0.204984 -0.161575,-0.299035 -0.161575,-0.09646 -0.504018,-0.09646 -0.27733,0 -0.516075,0.05547 -0.238745,0.05547 -0.443728,0.166398 v -0.658358 q 0.27733,-0.06752 0.557072,-0.101286 0.279741,-0.03617 0.559483,-0.03617 0.730705,0 1.053855,0.289389 0.325562,0.286976 0.325562,0.935688 z"
         style="letter-spacing:-0.283104px;fill:#ffffff"
         id="path178850" />
      <path
         d="m 23.244929,98.066027 v 1.644689 h -0.868165 v -0.267684 -0.991154 q 0,-0.349677 -0.01688,-0.482313 -0.01447,-0.132637 -0.05305,-0.195337 -0.05064,-0.0844 -0.137459,-0.130225 -0.08682,-0.04823 -0.197749,-0.04823 -0.270096,0 -0.424436,0.209806 -0.15434,0.207395 -0.15434,0.576365 v 1.328773 h -0.863341 v -2.700955 h 0.863341 v 0.395497 q 0.195337,-0.236334 0.414789,-0.347266 0.219453,-0.113344 0.484725,-0.113344 0.467845,0 0.709001,0.286977 0.243569,0.286977 0.243569,0.834402 z"
         style="letter-spacing:-0.283104px;fill:#ffffff"
         id="path178852" />
      <path
         d="m 24.705388,96.242882 v 0.766879 h 0.889868 v 0.617361 h -0.889868 v 1.145495 q 0,0.188102 0.07476,0.255626 0.07476,0.06511 0.296623,0.06511 H 25.5205 v 0.617361 h -0.740352 q -0.511252,0 -0.725881,-0.212218 -0.212218,-0.214629 -0.212218,-0.725881 V 97.62712 H 23.41279 v -0.617361 h 0.429259 V 96.24288 Z"
         style="letter-spacing:-0.283104px;fill:#ffffff"
         id="path178854" />
      <path
         d="m 27.125651,97.56201 q -0.286976,0 -0.438905,0.207395 -0.149517,0.204983 -0.149517,0.593245 0,0.388262 0.149517,0.595657 0.151929,0.204983 0.438905,0.204983 0.282153,0 0.431671,-0.204983 0.149517,-0.207395 0.149517,-0.595657 0,-0.388262 -0.149517,-0.593245 -0.149518,-0.207395 -0.431671,-0.207395 z m 0,-0.617362 q 0.696943,0 1.087617,0.376205 0.393085,0.376204 0.393085,1.041797 0,0.665593 -0.393085,1.041797 -0.390674,0.376205 -1.087617,0.376205 -0.699354,0 -1.094851,-0.376205 -0.393086,-0.376204 -0.393086,-1.041797 0,-0.665593 0.393086,-1.041797 0.395497,-0.376205 1.094851,-0.376205 z"
         style="letter-spacing:-0.283104px;fill:#ffffff"
         id="path178856" />
    </g>
    <text
       xml:space="preserve"
       transform="scale(0.26458333)"
       id="text77532"
       style="font-style:normal;font-weight:normal;font-size:40px;line-height:1.25;font-family:sans-serif;white-space:pre;shape-inside:url(#rect77534);fill:#000000;fill-opacity:1;stroke:none" />
  </g>
</svg>
